<?xml version="1.0" encoding="utf-8"?>
<!-- Generator: Adobe Illustrator 24.1.2, SVG Export Plug-In . SVG Version: 6.00 Build 0)  -->
<svg version="1.1" id="Layer_1" xmlns="http://www.w3.org/2000/svg" xmlns:xlink="http://www.w3.org/1999/xlink" x="0px" y="0px"
	 viewBox="0 0 477.3 81.4" style="enable-background:new 0 0 477.3 81.4;" xml:space="preserve">
<style type="text/css">
	.st0{fill:#FFFFFF;}
</style>
<path class="st0" d="M432.5,78.4c-5.3-2.1-10-5.3-14-9.4c-4-4.1-7-9-9-14.3c-2-5.6-2.8-11.6-2.3-17.5c0.8-9.7,5.1-18.7,12.1-25.4
	c11.2-11,27.8-14.5,42.5-9c5.4,2,10.2,5.2,14.3,9.2c0.3,0.2,0.4,0.7,0.1,1c0,0.1-0.1,0.1-0.1,0.1l-2.7,2.7c-0.3,0.3-0.7,0.3-1.1,0.1
	c0,0,0,0-0.1-0.1C459,2.6,437.7,2.2,423.9,14.9c-6.7,5.9-10.7,14.3-11.3,23.2c-0.8,9.8,2.6,19.5,9.3,26.7c6.7,7.1,16,11.2,25.8,11.2
	c9.1,0.1,17.9-3.4,24.4-9.8V47.5h-17c-0.4,0.1-0.7-0.2-0.8-0.6c0-0.1,0-0.1,0-0.2V43c-0.1-0.4,0.2-0.7,0.6-0.8c0.1,0,0.1,0,0.2,0
	h21.5c0.4-0.1,0.7,0.2,0.8,0.6c0,0.1,0,0.1,0,0.2v25.1c0,0.2-0.1,0.4-0.2,0.6l-0.1,0.1c-3.6,3.6-7.8,6.6-12.4,8.8
	C454.5,82.3,442.8,82.6,432.5,78.4L432.5,78.4z"/>
<path class="st0" d="M331.4,78.2c-9.7-4.1-17.5-11.9-21.6-21.6c-4.2-10.1-4.2-21.5,0-31.6c2.1-4.8,5-9.2,8.7-12.9
	c3.7-3.7,8.1-6.6,12.9-8.7C341.5-1,352.9-1,363,3.3c9.7,4.1,17.5,11.8,21.6,21.6c4.3,10.1,4.3,21.5,0,31.6c-2,4.8-5,9.2-8.7,12.9
	c-3.7,3.7-8.1,6.7-12.9,8.8C352.9,82.4,341.5,82.4,331.4,78.2L331.4,78.2z M333.5,8.3c-17.9,7.6-26.3,28.2-18.7,46.1c0,0,0,0,0,0
	c7.6,17.9,28.2,26.3,46.1,18.8c8.5-3.6,15.2-10.3,18.8-18.8c7.6-17.9-0.8-38.6-18.8-46.2C352.1,4.6,342.2,4.6,333.5,8.3z"/>
<path class="st0" d="M294.9,0.2c0.4-0.1,0.7,0.2,0.8,0.6c0,0.1,0,0.1,0,0.2v3.8c0.1,0.4-0.2,0.7-0.6,0.8c-0.1,0-0.1,0-0.2,0h-22.8
	v75c0.1,0.4-0.2,0.7-0.6,0.8c-0.1,0-0.1,0-0.2,0h-3.8c-0.5,0-0.7-0.3-0.7-0.8v-75H244c-0.4,0.1-0.7-0.2-0.8-0.6c0-0.1,0-0.1,0-0.2V1
	c-0.1-0.4,0.2-0.7,0.6-0.8c0.1,0,0.1,0,0.2,0H294.9z"/>
<path class="st0" d="M221.4,11.9c-0.2,0.3-0.6,0.3-0.9,0.1c0,0-0.1,0-0.1-0.1c-0.3-0.2-0.6-0.5-0.9-0.7s-0.8-0.6-1.2-0.9
	c-1-0.7-2-1.4-2.9-1.9c-2.4-1.2-4.9-2.1-7.5-2.7c-1.6-0.3-3.2-0.5-4.9-0.6h-2.7c-0.5,0-1,0-1.5,0.1l-0.7,0.1l-0.7,0.1
	c-1.9,0.2-3.8,0.7-5.6,1.4c-1.8,0.7-3.5,1.7-4.8,3.1c-1.4,1.4-2.4,3.2-2.9,5.1l-0.2,0.8c-0.1,0.3-0.1,0.5-0.1,0.8
	c-0.1,0.5-0.2,1.1-0.2,1.6l-0.1,0.9v0.3l0.1,0.5l0.1,1l0.1,0.7l0.1,0.3l0.1,0.4l0.2,0.7c0.1,0.3,0.2,0.5,0.3,0.7l0.2,0.3l0.2,0.4
	l0.4,0.7l0.4,0.7l0.3,0.3l0.2,0.3c0.2,0.2,0.4,0.4,0.6,0.6c1.7,1.8,3.6,3.2,5.7,4.4c1.8,1,4.1,2.2,7,3.5l1,0.4l1,0.5l1.9,0.8
	l3.7,1.7c2.6,1.2,5.2,2.5,7.6,4c2.5,1.5,4.8,3.5,6.8,5.7c2,2.4,3.4,5.2,4,8.2l0.2,1.1c0.1,0.4,0.1,0.8,0.1,1.1l0.1,1.1l0.1,0.6v0.6
	l-0.1,1l-0.1,0.5v0.6l-0.2,1.1l-0.2,1.1c-0.6,2.8-1.8,5.5-3.6,7.8c-1.7,2.2-3.9,4-6.4,5.3c-2.3,1.1-4.7,2-7.1,2.5l-0.9,0.2l-0.9,0.1
	c-0.6,0.1-1.1,0.2-1.7,0.2l-1.7,0.2l-1.6,0.1l-0.8,0.1H200l-1.5-0.1c-0.5,0-1,0-1.5-0.1l-0.8-0.1l-0.8-0.1c-1.9-0.2-3.8-0.6-5.6-1.1
	c-3-0.8-5.9-2-8.6-3.6c-1-0.6-2-1.2-2.9-1.9c-0.7-0.5-1.4-1-2-1.5c-0.4-0.3-0.8-0.7-1.1-1c-0.3-0.2-0.4-0.7-0.2-1
	c0-0.1,0.1-0.1,0.2-0.2l2.8-2.6c0.2-0.3,0.7-0.3,1-0.1c0,0,0.1,0.1,0.1,0.1l0.7,0.6c0.5,0.5,1.1,0.9,1.7,1.3
	c0.8,0.6,1.6,1.1,2.5,1.6c2.3,1.3,4.7,2.4,7.3,3.1c1.6,0.4,3.2,0.8,4.8,1h0.6l0.6,0.1c0.5,0.1,0.9,0.1,1.4,0.1l1.5,0.1h0.3l0.3-0.1
	h0.7h1.4l1.5-0.1c0.4,0,0.9-0.1,1.5-0.2l0.7-0.2l0.8-0.1c2-0.4,3.9-1.1,5.7-2c1.8-0.9,3.4-2.2,4.7-3.8c1.3-1.7,2.2-3.7,2.6-5.8
	l0.1-0.7l0.1-0.8c0-0.2,0-0.3,0-0.5v-0.5l0.1-1v-0.8l-0.1-0.8c0-0.2,0-0.5,0-0.8l-0.1-0.4l-0.1-0.4c-0.5-2.2-1.5-4.2-2.9-5.9
	c-2.4-2.7-6.6-5.5-12.6-8.2l-3.8-1.7l-1.8-0.9l-0.9-0.4l-1-0.4c-2.6-1.1-5.1-2.4-7.5-3.7c-2.5-1.5-4.8-3.3-6.9-5.4
	c-0.3-0.3-0.5-0.5-0.7-0.8l-0.3-0.5l-0.3-0.5c-0.5-0.8-0.9-1.5-1.2-2l-0.2-0.6l-0.2-0.5c-0.2-0.3-0.3-0.7-0.4-1.1l-0.3-1.1l-0.1-0.6
	l-0.1-0.6L179,21v-1l-0.1-0.5V19l0,0v-1.1c0-0.6,0.1-1.3,0.2-2.1c0-0.3,0.1-0.6,0.2-1l0.3-1c0.7-2.8,2.1-5.3,4.1-7.4
	c1.9-1.8,4.1-3.3,6.6-4.3c2.2-0.8,4.4-1.4,6.8-1.7l0.9-0.1h0.9c0.5-0.1,1-0.1,1.5-0.1h1.5l1.5,0.1c1.9,0.1,3.8,0.3,5.6,0.6
	c3,0.7,5.9,1.8,8.7,3.2c1,0.5,2,1.1,3,1.8c0.7,0.4,1.4,0.9,2.1,1.5c0.2,0.2,0.6,0.6,1.1,1c0.3,0.2,0.4,0.7,0.1,1
	c0,0.1-0.1,0.1-0.1,0.1L221.4,11.9z"/>
<path class="st0" d="M103.7,78.2C94,74,86.2,66.3,82.1,56.5c-4.2-10.1-4.2-21.5,0-31.6c2.1-4.8,5-9.2,8.7-12.9
	c3.7-3.7,8.1-6.6,12.9-8.7c10.1-4.3,21.5-4.3,31.6,0c9.7,4.1,17.5,11.8,21.6,21.6c4.3,10.1,4.3,21.5,0,31.6c-2,4.8-5,9.2-8.7,12.9
	c-3.7,3.7-8.1,6.7-12.9,8.7C125.2,82.4,113.9,82.4,103.7,78.2L103.7,78.2z M105.8,8.3c-13,5.5-21.5,18.3-21.5,32.5
	c0,9.3,3.7,18.3,10.3,24.9c3.2,3.2,7,5.8,11.2,7.5c17.9,7.6,38.6-0.8,46.2-18.7c3.7-8.8,3.7-18.7,0-27.5
	C144.4,9.1,123.7,0.7,105.8,8.3z"/>
<path class="st0" d="M24.6,78.1c-4.9-2.1-9.3-5.1-13-8.9C3.9,61.4-0.3,50.8,0,39.8c0.1-10.1,4.1-19.7,11.1-27
	c6.8-7.4,16.2-12,26.3-12.7c8.9-0.8,17.9,1.5,25.4,6.4c0.3,0.2,0.5,0.6,0.3,0.9c0,0.1-0.1,0.1-0.1,0.1l-2.1,3.2
	c-0.2,0.3-0.6,0.5-1,0.3c0,0-0.1,0-0.1-0.1c-6.5-4.3-14.2-6.2-21.9-5.6c-8.8,0.6-17.1,4.6-23,11.2C8.8,23,5.3,31.4,5.3,40.2
	C5.3,45,6.2,49.7,8,54.1c1.7,4.3,4.3,8.1,7.6,11.4C22.2,72.2,31.2,76,40.7,76c6.8,0,13.5-1.9,19.1-5.7c0.3-0.3,0.7-0.2,0.9,0
	c0.1,0.1,0.1,0.1,0.1,0.2l2.2,3.1c0.3,0.3,0.2,0.7,0,0.9c-0.1,0.1-0.1,0.1-0.2,0.1c-6.6,4.3-14.3,6.6-22.1,6.6
	C35.2,81.4,29.7,80.2,24.6,78.1z"/>
</svg>
